<svg width="200" height="243" viewBox="0 0 200 243" fill="none" xmlns="http://www.w3.org/2000/svg">
    <path d="M74.5 0.0216459C61.5 1.25978 0.5 73.0216 3.5 83.0216C6.5 93.0215 68.5 151.522 79 151.022C89.5 150.522 163.5 77.0216 163.5 64.0216C163.5 51.0216 87.5 -1.21649 74.5 0.0216459Z" fill="#5665EE"/>
    <path d="M88 165.022C82 174.522 79.5 236.022 83 242.022C86.5 248.022 181 203.022 186 196.522C191 190.022 206.5 111 195 108C183.5 105 94 155.522 88 165.022Z" fill="#5665EE"/>
    <path d="M71 163.522C74.5792 169.785 72.1534 227.692 71.6034 239.806C71.564 240.673 70.5426 241.063 69.9302 240.449C61.0318 231.522 17.2453 187.461 15 182.522C12.7752 177.627 2.6306 113.334 0.424325 99.2401C0.279035 98.312 1.34872 97.7312 2.04753 98.3591C13.3179 108.485 67.4181 157.253 71 163.522Z" fill="#5665EE"/>
</svg>
